<svg width="168" height="120" viewBox="0 0 168 120" fill="none" xmlns="http://www.w3.org/2000/svg">
<path d="M56.7999 99.4667L153.6 2.66669C155.212 1.06669 157.126 0.266685 159.342 0.266685C161.558 0.266685 163.467 1.07139 165.067 2.68081C166.667 4.29006 167.467 6.20117 167.467 8.41415C167.467 10.6269 166.667 12.5334 165.067 14.1334L62.3999 116.8C60.7999 118.4 58.9333 119.2 56.7999 119.2C54.6666 119.2 52.7999 118.4 51.1999 116.8L2.6666 68.2667C1.0666 66.6548 0.311042 64.7407 0.399931 62.5246C0.48882 60.3082 1.33797 58.4 2.9474 56.8C4.55664 55.2 6.46775 54.4 8.68073 54.4C10.8935 54.4 12.7999 55.2 14.3999 56.8L56.7999 99.4667Z" fill="white"/>
</svg>
